<?xml version="1.0" encoding="UTF-8" standalone="no"?>
<svg
   xmlns:dc="http://purl.org/dc/elements/1.1/"
   xmlns:cc="http://creativecommons.org/ns#"
   xmlns:rdf="http://www.w3.org/1999/02/22-rdf-syntax-ns#"
   xmlns:svg="http://www.w3.org/2000/svg"
   xmlns="http://www.w3.org/2000/svg"
   id="svg340"
   version="1.1"
   viewBox="0 0 26.458333 43.385838"
   height="163.97797"
   width="100">
  <defs
     id="defs334" />
  <metadata
     id="metadata337">
    <rdf:RDF>
      <cc:Work
         rdf:about="">
        <dc:format>image/svg+xml</dc:format>
        <dc:type
           rdf:resource="http://purl.org/dc/dcmitype/StillImage" />
        <dc:title></dc:title>
      </cc:Work>
    </rdf:RDF>
  </metadata>
  <g
     transform="translate(1.507274e-7,-232.89298)"
     id="layer1">
    <g
       transform="translate(-78.048655,38.516365)"
       id="g294"
       style="display:inline;opacity:1;fill:#333333">
      <g
         id="text306"
         style="font-style:normal;font-variant:normal;font-weight:bold;font-stretch:normal;font-size:33.9492px;line-height:1.25;font-family:Exo;-inkscape-font-specification:'Exo Bold';letter-spacing:0px;word-spacing:0px;fill:#333333;fill-opacity:1;stroke:none;stroke-width:0.84873"
         aria-label="NotatkiDeva" />
    </g>
  </g>
  <g
     transform="translate(1.507274e-7,-232.89298)"
     id="layer2">
    <g
       id="layer3" />
    <g
       transform="matrix(0.22222222,0,0,0.22222222,62.705037,216.98035)"
       id="g444">
      <path
         style="display:inline;opacity:1;fill:#f2ccb7;fill-opacity:1;stroke:none;stroke-width:0.499214;stroke-linecap:butt;stroke-linejoin:miter;stroke-miterlimit:4;stroke-dasharray:none;stroke-opacity:1"
         d="m -264.70038,93.172562 -15.3361,55.224738 1.2091,24.44502 10.1642,62.36978 89.4552,-1.04194 12.7526,-62.03422 1.2091,-24.4835 -13.8734,-54.383458 z"
         id="path280" />
      <g
         style="display:inline;opacity:1"
         id="g276"
         transform="matrix(2.1023174,0,0,2.1023174,-2321.1955,-2345.5611)">
        <g
           id="g272"
           transform="matrix(0.92971087,0,0,0.92971121,933.46316,617.90496)">
          <path
             id="path268"
             d="m 98.388563,623.50201 -0.9427,1.98804 c -0.518458,1.09341 -1.600358,3.61459 -2.404032,5.60264 -1.857555,4.59448 -2.571164,6.01684 -4.302931,8.57675 l -1.400633,2.0706 0.494694,1.90548 c 0.272122,1.04803 0.601821,2.8001 0.73277,3.8935 l 0.195275,1.63174 c -0.0077,0.0589 -0.01406,0.0877 -0.02311,0.0792 -0.09834,-0.0983 -0.424955,-1.15523 -0.72601,-2.34873 -0.301421,-1.19348 -1.096188,-3.30627 -1.766354,-4.69502 -1.056876,-2.18984 -1.398997,-2.64066 -2.575516,-3.39568 -1.840772,-1.18131 -5.793494,-2.86782 -9.205219,-3.92776 l -2.819397,-0.87596 -1.004544,0.56217 c -1.777253,0.99454 -3.819455,1.04391 -5.535662,0.20429 l -1.521828,-0.74458 -2.826416,0.87817 c -3.18219,0.98862 -7.521634,2.83884 -9.278531,3.95629 -0.966002,0.61439 -1.386383,1.19155 -2.408153,3.30625 -0.68067,1.409 -1.492643,3.54737 -1.803905,4.75184 -0.129138,0.49951 -0.260711,0.97233 -0.376928,1.36247 -0.08203,0.23693 -0.141953,0.41801 -0.171252,0.52036 -0.452821,1.58499 0.155866,-3.38642 0.641759,-5.24114 0.481861,-1.83986 0.471751,-2.04188 -0.136012,-2.71095 -1.281759,-1.41085 -2.92014,-4.46173 -4.676971,-8.70883 -0.979172,-2.36703 -2.201168,-5.1983 -2.715639,-6.29171 l -0.935316,-1.98802 0.117719,12.2896 0.0755,7.87076 0.0048,0.52203 0.03736,3.89679 0.984363,2.53022 c 2.478191,6.36956 7.693579,12.20526 10.151396,13.43523 l -0.189826,-1.21631 c -0.104278,-0.6689 -0.246328,-1.46548 -0.315459,-1.77006 -0.106617,-0.46794 -0.04969,-0.44813 0.366336,0.12804 2.907458,4.02618 4.694919,5.48793 8.106893,6.63046 1.446725,0.48452 4.063306,1.55256 5.814563,2.37346 1.751303,0.82092 3.433407,1.45103 3.737986,1.4003 0.304599,-0.0506 2.04923,-0.7711 3.876687,-1.60083 1.827389,-0.82977 4.381914,-1.85749 5.676306,-2.28395 2.689884,-0.88608 4.651744,-2.37298 6.662296,-5.04971 1.585684,-2.1107 1.738315,-2.2673 1.557616,-1.59752 -0.08203,0.30458 -0.234724,1.10113 -0.338962,1.77007 l -0.189875,1.2163 c 3.43908,-1.983 8.188178,-8.20519 10.258167,-14.3389 0.738835,-2.18903 0.803414,-3.17641 0.945781,-14.45832 z m -28.71282,16.14554 c 0.439928,-6e-4 0.864161,0.0164 1.266767,0.0452 3.447197,0.25512 11.184229,2.92242 12.046002,4.15271 0.608089,0.86813 1.59899,4.02767 1.414056,4.50914 -0.411919,1.07357 -5.929672,2.67415 -7.085798,2.0554 -0.778322,-0.41663 -1.666053,-2.27895 -1.857999,-3.89776 l -0.161652,-1.36556 h -5.650224 -5.65053 l -0.189142,1.42464 c -0.221745,1.6714 -1.046698,3.42219 -1.803202,3.82714 -0.648434,0.34699 -0.813736,0.33996 -2.955535,-0.12601 -1.920439,-0.41778 -3.93802,-1.36013 -4.161893,-1.94412 -0.227011,-0.59112 1.003563,-4.03271 1.685676,-4.71471 0.757622,-0.75768 5.625747,-2.65498 8.874307,-3.45853 1.447677,-0.35808 2.909365,-0.50615 4.229225,-0.50752 z"
             style="fill:#333333;fill-opacity:1;stroke:none;stroke-width:1.17188;stroke-miterlimit:4;stroke-dasharray:none;stroke-opacity:1" />
          <path
             style="fill:#333333;fill-opacity:1;stroke:none;stroke-width:1.17188;stroke-miterlimit:4;stroke-dasharray:none;stroke-opacity:1"
             d="m 40.277333,611.35667 0.962988,-2.0954 c 0.529608,-1.15249 2.154836,-4.00559 2.975812,-6.10097 3.162164,-27.71737 21.250326,-13.71308 26.732174,-14.31397 7.15315,-0.78408 21.783303,-11.2146 24.329308,13.40235 1.000259,2.49489 2.248559,5.47909 2.774104,6.63153 l 0.955439,2.09538 -0.120376,-12.95334 -0.07713,-3.17665 0.09646,-0.0183 c -0.03206,-0.17641 -0.06595,-0.3538 -0.101312,-0.53202 0,-2.67336 -0.180236,-2.9323 -1.043703,-5.22234 -4.493856,-7.08317 -8.156365,-11.72942 -14.762286,-14.64613 -6.280834,-2.77317 -15.222482,-4.15594 -30.069345,1.94906 -1.619788,2.22469 -1.775703,2.38973 -1.591114,1.68378 0.08396,-0.321 0.23976,-1.16061 0.346242,-1.86566 L 51.87857,574.912 c -3.513093,2.09008 -8.364399,8.64832 -10.478919,15.11333 -0.754742,2.30726 -0.820707,-3.32302 -0.966147,8.56823 z"
             id="path270" />
        </g>
      </g>
      <path
         style="display:inline;opacity:1;fill:#333333;fill-opacity:1;stroke-width:0.595312"
         d="m -188.96977,138.55858 c -8.2717,0.002 -15.5399,1.12927 -23.2886,3.61121 -7.5381,2.40642 -13.3565,2.40235 -21.1221,-0.0245 -12.2539,-3.82655 -23.2214,-4.50519 -38.8751,-2.40566 -4.8597,0.65152 -9.0789,1.33469 -9.3763,1.51913 -0.2973,0.18331 -0.5408,2.71395 -0.5408,5.62281 0,4.17819 0.2445,5.70255 1.164,7.26095 0.6399,1.08466 1.5592,4.11392 2.0427,6.7313 2.853,15.44353 5.5526,18.74739 16.7575,20.50823 v 0.009 c 4.9177,0.77291 16.0039,0.29243 19.7813,-0.857 1.7239,-0.52449 4.1152,-1.81284 5.3144,-2.86287 2.3751,-2.07993 5.4904,-8.23504 8.1973,-16.19664 1.8586,-5.46639 3.1155,-6.84606 6.2364,-6.84606 3.0653,0 4.3047,1.56173 6.6142,8.33424 5.4498,15.98128 8.9142,18.67132 24.082,18.70284 12.2873,0.0275 18.0741,-1.77025 21.1041,-6.54813 1.6774,-2.64509 2.3778,-4.89445 4.8441,-15.55895 0.6981,-3.01837 1.6415,-5.7971 2.097,-6.17487 0.5975,-0.49621 0.8275,-2.21989 0.8275,-6.20571 0,-4.68973 -0.1553,-5.57852 -1.0334,-5.91552 -2.5797,-0.98997 -18.3382,-2.70724 -24.8262,-2.7054 z m -1.6275,4.81665 c 3.3737,0.006 6.7402,0.2579 9.7894,0.80163 5.1472,0.91752 7.7315,2.17863 9.5988,4.68402 1.0594,1.42176 1.237,2.43111 1.1517,6.54841 -0.1312,6.27951 -1.675,13.64145 -3.6097,17.21039 -1.8529,3.41774 -4.6007,4.92031 -10.5775,5.78388 -6.9622,1.00625 -13.4233,0.49499 -18.5654,-1.46902 -4.5986,-1.75608 -8.0472,-8.0649 -9.9448,-18.19305 -1.2478,-6.65929 -1.2068,-8.40393 0.2405,-10.24424 2.4326,-3.09302 12.2047,-5.13617 21.9169,-5.12202 z m -64.1241,0.0113 c 7.0098,-0.002 14.2942,1.0867 18.9834,3.38156 l 3.2743,1.60224 0.1757,4.36522 c 0.1182,2.9371 -0.2111,5.8581 -1.0082,8.92957 -2.4945,9.61554 -5.7495,14.32774 -10.9679,15.87732 v 0 c -4.1858,1.24311 -13.5518,1.61214 -18.2629,0.71973 -4.9338,-0.93462 -7.6925,-2.56048 -9.3615,-5.5172 -3.2844,-5.81784 -4.6616,-21.12659 -2.2023,-24.47723 2.3325,-3.17803 10.6379,-4.8774 19.3694,-4.88122 z"
         id="path278" />
    </g>
  </g>
</svg>
